<?xml version="1.0" encoding="UTF-8" standalone="no"?>
<!-- Created with Inkscape (http://www.inkscape.org/) -->

<svg
   width="200mm"
   height="100mm"
   viewBox="0 0 200 100"
   version="1.1"
   id="svg5"
   sodipodi:docname="logo.svg"
   inkscape:version="1.2.1 (9c6d41e410, 2022-07-14)"
   xmlns:inkscape="http://www.inkscape.org/namespaces/inkscape"
   xmlns:sodipodi="http://sodipodi.sourceforge.net/DTD/sodipodi-0.dtd"
   xmlns="http://www.w3.org/2000/svg"
   xmlns:svg="http://www.w3.org/2000/svg">
  <sodipodi:namedview
     id="namedview7"
     pagecolor="#ffffff"
     bordercolor="#000000"
     borderopacity="0.25"
     inkscape:showpageshadow="2"
     inkscape:pageopacity="0.0"
     inkscape:pagecheckerboard="0"
     inkscape:deskcolor="#d1d1d1"
     inkscape:document-units="mm"
     showgrid="false"
     inkscape:zoom="0.53291924"
     inkscape:cx="-74.120049"
     inkscape:cy="10.320513"
     inkscape:window-width="1904"
     inkscape:window-height="1002"
     inkscape:window-x="8"
     inkscape:window-y="33"
     inkscape:window-maximized="0"
     inkscape:current-layer="layer1" />
  <defs
     id="defs2" />
  <g
     inkscape:label="Layer 1"
     inkscape:groupmode="layer"
     id="layer1">
    <path
       style="color:#000000;fill:#000000;stroke-width:0.877371;-inkscape-stroke:none"
       d="m 36.027454,10.739477 c -1.263435,0.184273 -2.36016,1.135733 -3.126155,2.353612 -1.45387,2.311553 -2.487488,5.986789 -4.097882,11.678023 -12.601245,6.227367 -18.210328,20.030502 -18.210328,20.030502 l 3.079805,1.655434 c 0,0 5.399581,-13.115562 17.144302,-18.485311 l 0.741584,-0.338072 0.247726,-0.872725 c 1.763403,-6.224768 2.973436,-9.984622 3.850156,-11.378547 0.43836,-0.696962 0.589242,-0.733716 0.799119,-0.764326 0.209876,-0.03061 0.76151,0.06581 1.682945,0.580594 1.724561,0.963478 3.41391,3.410589 4.546988,5.688353 1.133077,2.277762 1.732489,4.242377 1.732489,4.242377 l 0.389972,1.28613 1.185891,0.02389 c 8.750316,0.173889 16.159364,1.141241 24.422665,3.156607 0,0 -0.183739,3.488641 0.01352,5.210676 0.240964,2.103699 0.05479,4.722278 1.417468,6.153463 1.197634,1.257852 3.176843,0.859423 4.797566,0.939027 1.304673,0.06406 3.904023,-0.37446 3.904023,-0.37446 0,0 1.506413,8.275027 1.769527,12.366136 0.294537,4.579686 0.552343,4.448898 -0.298442,7.104681 -0.425392,1.327897 -0.974328,2.218316 -1.572666,2.724757 -0.598338,0.50643 -1.275545,0.751411 -2.410143,0.593456 -11.363014,-1.581955 -24.176893,-3.466224 -35.804162,2.24362 -2.897527,1.422899 -5.406785,4.825389 -7.498933,7.882112 -2.092148,3.056732 -3.608821,5.827988 -3.608822,5.827988 l 2.876829,2.08353 c 0,0 1.435498,-2.617157 3.404248,-5.493602 1.968749,-2.876436 4.628183,-5.950779 6.162807,-6.704391 9.950967,-4.886657 21.992283,-3.63873 34.058884,-1.95883 1.822278,0.253691 3.533451,-0.223843 4.836269,-1.326552 1.302817,-1.102709 2.167014,-2.708189 2.747367,-4.519817 1.160715,-3.623238 0.811957,-3.86722 0.498229,-8.74541 -1.230186,-8.378673 -3.045039,-22.934594 -6.724541,-25.201383 -2.656998,-1.636873 -5.79421,-2.156511 -8.650862,-2.710241 -3.103089,-0.60149 -5.929097,-1.174682 -8.87148,-1.457997 -5.104282,-0.491473 -9.545092,-1.462142 -14.342588,-1.637047 -0.258533,-0.772452 -0.516057,-1.704798 -1.483166,-3.648924 -1.297306,-2.607905 -3.177859,-5.68108 -6.012571,-7.264777 -1.187484,-0.663426 -2.334201,-1.12682 -3.597634,-0.942548 z"
       id="path446"
       sodipodi:nodetypes="ssccccccsssscccsaaacssscssccssssscssscssss" />
    <path
       style="color:#000000;fill:#000000;stroke-width:0.877371;-inkscape-stroke:none"
       d="m 48.030223,33.796046 c -0.518493,0 -0.892804,0.363236 -1.101188,0.674301 -0.208382,0.311065 -0.331041,0.637396 -0.433121,0.99767 -0.204162,0.720545 -0.305263,1.587297 -0.305263,2.544695 0,0.957387 0.1011,1.824138 0.305263,2.544684 0.102086,0.360273 0.224739,0.686605 0.433121,0.99767 0.208384,0.311064 0.582695,0.6743 1.101188,0.6743 0.518492,0 0.892801,-0.363236 1.101186,-0.6743 0.208382,-0.311065 0.329443,-0.637397 0.431523,-0.99767 0.204162,-0.720546 0.305264,-1.587297 0.305264,-2.544684 0,-0.957398 -0.101101,-1.82415 -0.305264,-2.544695 -0.102086,-0.360274 -0.223141,-0.686605 -0.431523,-0.99767 -0.208385,-0.311065 -0.582694,-0.674301 -1.101186,-0.674301 z"
       id="path2725" />
    <text
       xml:space="preserve"
       style="font-weight:bold;font-size:22.265px;line-height:0.9;font-family:Comfortaa;-inkscape-font-specification:'Comfortaa Bold';fill:#000000;stroke-width:5.87088"
       x="90.18438"
       y="46.435818"
       id="text343"><tspan
         sodipodi:role="line"
         id="tspan341"
         style="font-style:normal;font-variant:normal;font-weight:bold;font-stretch:normal;font-family:'JetBrainsMono Nerd Font Mono';-inkscape-font-specification:'JetBrainsMono Nerd Font Mono Bold';stroke-width:5.87088"
         x="90.18438"
         y="46.435818">Capivara</tspan><tspan
         sodipodi:role="line"
         style="font-style:normal;font-variant:normal;font-weight:bold;font-stretch:normal;font-family:'JetBrainsMono Nerd Font Mono';-inkscape-font-specification:'JetBrainsMono Nerd Font Mono Bold';stroke-width:5.87088"
         x="90.18438"
         y="66.861893"
         id="tspan345">Dev</tspan></text>
  </g>
</svg>
